<?xml version="1.0" standalone="no"?>
<!DOCTYPE svg PUBLIC "-//W3C//DTD SVG 20010904//EN"
 "http://www.w3.org/TR/2001/REC-SVG-20010904/DTD/svg10.dtd">
<svg version="1.0" xmlns="http://www.w3.org/2000/svg"
 width="384.000000pt" height="384.000000pt" viewBox="0 0 384.000000 384.000000"
 preserveAspectRatio="xMidYMid meet">
<metadata>
Created by potrace 1.14, written by Peter Selinger 2001-2017
</metadata>
<g transform="translate(0.000000,384.000000) scale(0.100000,-0.100000)"
fill="#000000" stroke="none">
<path d="M835 3299 c-226 -226 -333 -325 -553 -506 -149 -124 -272 -232 -272
-239 0 -23 96 -220 142 -291 130 -200 296 -339 594 -494 l134 -71 16 39 c9 21
54 128 101 237 l85 199 -21 71 c-25 83 -27 136 -7 174 8 15 62 74 120 132
l106 105 208 -208 207 -207 -688 -688 -687 -687 0 -225 0 -225 1120 1120 1120
1120 106 -105 c58 -58 112 -117 120 -132 20 -38 18 -91 -7 -174 l-21 -71 85
-199 c47 -109 92 -216 101 -237 l15 -38 103 52 c377 189 575 378 718 683 28
59 50 113 50 120 0 7 -114 107 -252 221 -201 165 -315 270 -556 509 l-302 301
-272 -272 -273 -273 80 -80 80 -80 -208 -208 -207 -207 -207 207 -208 208 80
80 80 80 -270 270 c-148 149 -272 270 -275 270 -3 0 -131 -126 -285 -281z
m335 -214 l44 -45 -205 -207 c-228 -230 -249 -262 -270 -393 -8 -52 -8 -94 0
-152 9 -63 8 -85 -2 -105 l-13 -25 -82 61 c-44 34 -100 83 -123 109 -46 52
-114 150 -108 156 177 141 394 334 529 470 96 97 177 176 180 176 3 0 26 -20
50 -45z m1730 -131 c139 -139 304 -287 529 -470 6 -6 -62 -104 -108 -156 -23
-26 -79 -75 -123 -109 l-82 -61 -13 25 c-10 20 -11 42 -2 105 8 58 8 100 0
152 -21 131 -42 163 -270 393 l-205 207 44 45 c24 25 47 45 50 45 3 0 84 -79
180 -176z"/>
<path d="M2192 1967 l-112 -112 720 -720 720 -720 0 225 0 225 -608 608 -607
607 -113 -113z"/>
<path d="M1580 1295 l-335 -335 338 -338 337 -337 337 337 338 338 -335 335
c-184 184 -337 335 -340 335 -3 0 -156 -151 -340 -335z m455 -225 l110 -110
-113 -113 -112 -112 -112 112 -113 113 110 110 c60 60 112 110 115 110 3 0 55
-50 115 -110z"/>
</g>
</svg>
